{"title":"ReignWolf - Live, Jet City Stream Session - FLAC Audio + HD Vide","uid":8296377,"size":804077525,"categoryP":"audio","categoryS":"flac","magnet":"?xt=urn:btih:29fb78241e39c973ae8d40a6c25ce2fdfd547cb1&amp;dn=ReignWolf+-+Live%2C+Jet+City+Stream+Session+-+FLAC+Audio+%2B+HD+Vide&amp;tr=udp%3A%2F%2Ftracker.openbittorrent.com%3A80&amp;tr=udp%3A%2F%2Fopen.demonii.com%3A1337&amp;tr=udp%3A%2F%2Ftracker.coppersurfer.tk%3A6969&amp;tr=udp%3A%2F%2Fexodus.desync.com%3A6969","seeders":7,"leechers":1,"uploader":"Redworm01","files":-1,"time":1364152644,"description":"Jordan Cooper aka ReignWolf Live At Jet City Studios, 2012.\n\nFLAC Audio:\n\nAudio\nFormat                           : FLAC\nFormat/Info                      : Free Lossless Audio Codec\nBit rate mode                    : Variable\nChannel(s)                       : 2 channels\nSampling rate                    : 44.1 KHz\nBit depth                        : 16 bits\nStream size                      : 90,3 MB\nWriting library                  : libFLAC 1.2.1 (UTC 2007-09-17)\n\n-----------------------------------------------------------------------\n\nHD Video:\n\nID                               : 1\nFormat                           : AVC\nFormat/Info                      : Advanced Video Codec\nFormat profile                   : &lt;a class=&quot;__cf_email__&quot; href=&quot;/cdn-cgi/l/email-protection&quot; data-cfemail=&quot;2860414f4068641c0618&quot;&gt;[email&amp;#160;protected]&lt;/a&gt;&lt;script cf-hash='f9e31' type=&quot;text/javascript&quot;&gt;\n/* &lt;![CDATA[ */!function(){try{var t=&quot;currentScript&quot;in document?document.currentScript:function(){for(var t=document.getElementsByTagName(&quot;script&quot;),e=t.length;e--;)if(t[e].getAttribute(&quot;cf-hash&quot;))return t[e]}();if(t&amp;&amp;t.previousSibling){var e,r,n,i,c=t.previousSibling,a=c.getAttribute(&quot;data-cfemail&quot;);if(a){for(e=&quot;&quot;,r=parseInt(a.substr(0,2),16),n=2;a.length-n;n+=2)i=parseInt(a.substr(n,2),16)^r,e+=String.fromCharCode(i);e=document.createTextNode(e),c.parentNode.replaceChild(e,c)}}}catch(u){}}();/* ]]&gt; */&lt;/script&gt;\nFormat settings, CABAC           : Yes\nFormat settings, ReFrames        : 1 frame\nFormat settings, GOP             : M=1, N=48\nCodec ID                         : avc1\nCodec ID/Info                    : Advanced Video Coding\nBit rate mode                    : Variable\nBit rate                         : 4 951 Kbps\nMaximum bit rate                 : 10.8 Mbps\nWidth                            : 1 920 pixels\nHeight                           : 1 080 pixels\nDisplay aspect ratio             : 16:9\nFrame rate mode                  : Constant\nFrame rate                       : 23.976 fps\nColor space                      : YUV\nChroma subsampling               : 4:2:0\nBit depth                        : 8 bits\nScan type                        : Progressive\nBits/(Pixel*Frame)               : 0.100\nStream size                      : 141 MiB (97%)\n\nAudio\nID                               : 2\nFormat                           : AAC\nFormat/Info                      : Advanced Audio Codec\nFormat profile                   : LC\nCodec ID                         : 40\nBit rate mode                    : Variable\nBit rate                         : 149 Kbps\nMaximum bit rate                 : 190 Kbps\nChannel(s)                       : 2 channels\nChannel positions                : Front: L R\nSampling rate                    : 44.1 KHz\nCompression mode                 : Lossy\nStream size                      : 4.24 MiB (3%)\nTitle                            : IsoMedia File, 5-11-2011\n\n---------------------------------------------------------------------------\n\nSetlist:\n1- Palms To The Sky\n2- Old Man\n3- In The Dark\n4- Electric Love","torrent":{"xt":"urn:btih:29fb78241e39c973ae8d40a6c25ce2fdfd547cb1","amp;dn":"ReignWolf+-+Live%2C+Jet+City+Stream+Session+-+FLAC+Audio+%2B+HD+Vide","amp;tr":["udp%3A%2F%2Ftracker.openbittorrent.com%3A80","udp%3A%2F%2Fopen.demonii.com%3A1337","udp%3A%2F%2Ftracker.coppersurfer.tk%3A6969","udp%3A%2F%2Fexodus.desync.com%3A6969"],"infoHash":"29fb78241e39c973ae8d40a6c25ce2fdfd547cb1","infoHashBuffer":{"type":"Buffer","data":[41,251,120,36,30,57,201,115,174,141,64,166,194,92,226,253,253,84,124,177]},"announce":[],"urlList":[]}}